# xmcd
# 
# Track frame offsets:
#     150
#     17556
#     34232
#     56114
#     74782
#     94669
#     112084
#     134214
#     147922
#     163181
#     179606
#     197695
# 
# Disc length: 2822
# 
# Revision: 1
# Processed by: cddbd v1.5.2PL0 Copyright (c) Steve Scherf et al.
# Submitted via: BonkEnc v1.0.8
# 
DISCID=c00b040c
DTITLE=coba - 僕のエレキュート
DYEAR=2008
DGENRE=New Age
TTITLE0=my sweet trickster
TTITLE1=野球帽
TTITLE2=薔薇の冠
TTITLE3=初恋なのに人見知り
TTITLE4=綺麗は探究心
TTITLE5=雨のち晴れて
TTITLE6=夢見るマルコ・ポーロ
TTITLE7=思い出TAXI
TTITLE8=あしたね
TTITLE9=eye royal
TTITLE10=恋のbamboo disco
TTITLE11=someone to watch over me
EXTD=
EXTT0=
EXTT1=
EXTT2=
EXTT3=
EXTT4=
EXTT5=
EXTT6=
EXTT7=
EXTT8=
EXTT9=
EXTT10=
EXTT11=
PLAYORDER=
